<?xml version="1.0" encoding="UTF-8"?>
<svg width="39px" height="39px" viewBox="0 0 39 39" version="1.1" xmlns="http://www.w3.org/2000/svg" xmlns:xlink="http://www.w3.org/1999/xlink">
    <!-- Generator: Sketch 55.2 (78181) - https://sketchapp.com -->
    <title>iconfinder_moon_dark_mode_night_5402400</title>
    <desc>Created with Sketch.</desc>
    <g id="Page-1" stroke="none" stroke-width="1" fill="none" fill-rule="evenodd">
        <g id="iconfinder_moon_dark_mode_night_5402400" fill="#1D1D1F" fill-rule="nonzero">
            <path d="M38.2005556,27.0622222 C34.5240308,35.792261 25.1048482,40.6167834 15.8720183,38.4989393 C6.63918841,36.3810952 0.26434152,27.9337085 0.760196814,18.4740817 C1.25605211,9.01445486 8.47912789,1.27984481 17.8827778,0.138888889 C18.3665584,0.0811148321 18.833506,0.337478254 19.0444444,0.776666667 C19.2652165,1.20805625 19.1823909,1.7326186 18.8394444,2.075 C16.0187081,4.87336019 14.4495637,8.69352852 14.4888889,12.6666667 C14.5296802,17.9248 17.3271381,22.7757255 21.8577594,25.4446393 C26.3883806,28.1135532 31.9873248,28.208809 36.6061111,25.6955556 C37.0375422,25.4729303 37.5611447,25.5361238 37.9272222,25.855 C38.2380752,26.1740036 38.3436814,26.640431 38.2005556,27.0622222 Z" id="Path"></path>
        </g>
    </g>
</svg>