<?xml version="1.0" encoding="UTF-8"?>
<svg width="50px" height="50px" viewBox="0 0 50 50" version="1.1" xmlns="http://www.w3.org/2000/svg" xmlns:xlink="http://www.w3.org/1999/xlink">
    <!-- Generator: Sketch 55.2 (78181) - https://sketchapp.com -->
    <title>iconfinder_sun_light_mode_day_5402428</title>
    <desc>Created with Sketch.</desc>
    <g id="Page-1" stroke="none" stroke-width="1" fill="none" fill-rule="evenodd">
        <g id="iconfinder_sun_light_mode_day_5402428" fill="#1D1D1F" fill-rule="nonzero">
            <circle id="Oval" cx="25" cy="25" r="12.5"></circle>
            <path d="M47.5,27.5 L45,27.5 C43.6192881,27.5 42.5,26.3807119 42.5,25 C42.5,23.6192881 43.6192881,22.5 45,22.5 L47.5,22.5 C48.8807119,22.5 50,23.6192881 50,25 C50,26.3807119 48.8807119,27.5 47.5,27.5 Z" id="Path"></path>
            <path d="M5,27.5 L2.5,27.5 C1.11928813,27.5 0,26.3807119 0,25 C0,23.6192881 1.11928813,22.5 2.5,22.5 L5,22.5 C6.38071187,22.5 7.5,23.6192881 7.5,25 C7.5,26.3807119 6.38071187,27.5 5,27.5 Z" id="Path"></path>
            <path d="M39.15,13.35 C38.5289903,13.3218816 37.9407324,13.0634047 37.5,12.625 C36.530691,11.6499064 36.530691,10.0750936 37.5,9.1 L39.275,7.325 C39.8859747,6.6115596 40.845296,6.30079514 41.7585474,6.52047466 C42.6717989,6.74015419 43.3848458,7.45320113 43.6045253,8.36645257 C43.8242049,9.27970401 43.5134404,10.2390253 42.8,10.85 L41.025,12.625 C40.5289761,13.1183762 39.8489119,13.3813343 39.15,13.35 L39.15,13.35 Z" id="Path"></path>
            <path d="M9.1,43.4 C8.43549254,43.4038419 7.79679708,43.1429663 7.325,42.675 C6.35569101,41.6999064 6.35569101,40.1250936 7.325,39.15 L9.1,37.5 C10.0919007,36.650558 11.5704854,36.7076693 12.4939081,37.6310919 C13.4173307,38.5545146 13.474442,40.0330993 12.625,41.025 L10.85,42.8 C10.3648497,43.2164158 9.73859518,43.4311317 9.1,43.4 L9.1,43.4 Z" id="Path"></path>
            <path d="M25,7.5 C23.6192881,7.5 22.5,6.38071187 22.5,5 L22.5,2.5 C22.5,1.11928813 23.6192881,0 25,0 C26.3807119,0 27.5,1.11928813 27.5,2.5 L27.5,5 C27.5,6.38071187 26.3807119,7.5 25,7.5 Z" id="Path"></path>
            <path d="M25,50 C23.6192881,50 22.5,48.8807119 22.5,47.5 L22.5,45 C22.5,43.6192881 23.6192881,42.5 25,42.5 C26.3807119,42.5 27.5,43.6192881 27.5,45 L27.5,47.5 C27.5,48.8807119 26.3807119,50 25,50 Z" id="Path"></path>
            <path d="M10.85,13.3500418 C10.1941503,13.3472384 9.5656516,13.0868604 9.1,12.625 L7.325,10.85 C6.47555801,9.85809931 6.53266933,8.37951457 7.45609195,7.45609195 C8.37951457,6.53266933 9.85809931,6.47555801 10.85,7.325 L12.625,9.1 C13.594309,10.0750936 13.594309,11.6499064 12.625,12.625 C12.1532029,13.0929663 11.5145075,13.3538419 10.85,13.3500418 Z" id="Path"></path>
            <path d="M40.9,43.4 C40.2441503,43.3972384 39.6156516,43.1368604 39.15,42.675 L37.5,40.9 C36.9571909,39.9241271 37.1273905,38.7066116 37.917001,37.917001 C38.7066116,37.1273905 39.9241271,36.9571909 40.9,37.5 L42.675,39.275 C43.644309,40.2500936 43.644309,41.8249064 42.675,42.8 C42.1834855,43.2225383 41.5470755,43.4376628 40.9,43.4 Z" id="Path"></path>
        </g>
    </g>
</svg>